<svg width="96" height="24" viewBox="0 0 96 24" fill="none" xmlns="http://www.w3.org/2000/svg">
<mask id="path-1-outside-1_9_60" maskUnits="userSpaceOnUse" x="-14" y="-39" width="131" height="93" fill="black">
<rect fill="white" x="-14" y="-39" width="131" height="93"/>
<path d="M6.152 17.168C5.048 17.168 4.056 16.976 3.176 16.592C2.312 16.192 1.632 15.648 1.136 14.96C0.64 14.256 0.384 13.448 0.368 12.536H2.696C2.776 13.32 3.096 13.984 3.656 14.528C4.232 15.056 5.064 15.32 6.152 15.32C7.192 15.32 8.008 15.064 8.6 14.552C9.208 14.024 9.512 13.352 9.512 12.536C9.512 11.896 9.336 11.376 8.984 10.976C8.632 10.576 8.192 10.272 7.664 10.064C7.136 9.856 6.424 9.632 5.528 9.392C4.424 9.104 3.536 8.816 2.864 8.528C2.208 8.24 1.64 7.792 1.16 7.184C0.696 6.56 0.464 5.728 0.464 4.688C0.464 3.776 0.696 2.968 1.16 2.264C1.624 1.56 2.272 1.016 3.104 0.631999C3.952 0.247999 4.92 0.0559993 6.008 0.0559993C7.576 0.0559993 8.856 0.447999 9.848 1.232C10.856 2.016 11.424 3.056 11.552 4.352H9.152C9.072 3.712 8.736 3.152 8.144 2.672C7.552 2.176 6.768 1.928 5.792 1.928C4.88 1.928 4.136 2.168 3.56 2.648C2.984 3.112 2.696 3.768 2.696 4.616C2.696 5.224 2.864 5.72 3.2 6.104C3.552 6.488 3.976 6.784 4.472 6.992C4.984 7.184 5.696 7.408 6.608 7.664C7.712 7.968 8.6 8.272 9.272 8.576C9.944 8.864 10.52 9.32 11 9.944C11.48 10.552 11.72 11.384 11.72 12.44C11.72 13.256 11.504 14.024 11.072 14.744C10.64 15.464 10 16.048 9.152 16.496C8.304 16.944 7.304 17.168 6.152 17.168ZM26.2619 3.848L18.3419 23.192H16.0859L18.6779 16.856L13.3739 3.848H15.7979L19.9259 14.504L24.0059 3.848H26.2619ZM34.8654 3.608C36.4654 3.608 37.7614 4.096 38.7534 5.072C39.7454 6.032 40.2414 7.424 40.2414 9.248V17H38.0814V9.56C38.0814 8.248 37.7534 7.248 37.0974 6.56C36.4414 5.856 35.5454 5.504 34.4094 5.504C33.2574 5.504 32.3374 5.864 31.6494 6.584C30.9774 7.304 30.6414 8.352 30.6414 9.728V17H28.4574V3.848H30.6414V5.72C31.0734 5.048 31.6574 4.528 32.3934 4.16C33.1454 3.792 33.9694 3.608 34.8654 3.608ZM55.8089 9.92C55.8089 10.336 55.7849 10.776 55.7369 11.24H45.2249C45.3049 12.536 45.7449 13.552 46.5449 14.288C47.3609 15.008 48.3449 15.368 49.4969 15.368C50.4409 15.368 51.2249 15.152 51.8489 14.72C52.4889 14.272 52.9369 13.68 53.1929 12.944H55.5449C55.1929 14.208 54.4889 15.24 53.4329 16.04C52.3769 16.824 51.0649 17.216 49.4969 17.216C48.2489 17.216 47.1289 16.936 46.1369 16.376C45.1609 15.816 44.3929 15.024 43.8329 14C43.2729 12.96 42.9929 11.76 42.9929 10.4C42.9929 9.04 43.2649 7.848 43.8089 6.824C44.3529 5.8 45.1129 5.016 46.0889 4.472C47.0809 3.912 48.2169 3.632 49.4969 3.632C50.7449 3.632 51.8489 3.904 52.8089 4.448C53.7689 4.992 54.5049 5.744 55.0169 6.704C55.5449 7.648 55.8089 8.72 55.8089 9.92ZM53.5529 9.464C53.5529 8.632 53.3689 7.92 53.0009 7.328C52.6329 6.72 52.1289 6.264 51.4889 5.96C50.8649 5.64 50.1689 5.48 49.4009 5.48C48.2969 5.48 47.3529 5.832 46.5689 6.536C45.8009 7.24 45.3609 8.216 45.2489 9.464H53.5529ZM60.8758 5.984C61.2598 5.232 61.8038 4.648 62.5078 4.232C63.2278 3.816 64.0998 3.608 65.1238 3.608V5.864H64.5478C62.0998 5.864 60.8758 7.192 60.8758 9.848V17H58.6918V3.848H60.8758V5.984ZM73.0689 3.632C74.2049 3.632 75.1969 3.88 76.0449 4.376C76.9089 4.872 77.5489 5.496 77.9649 6.248V3.848H80.1729V17.288C80.1729 18.488 79.9169 19.552 79.4049 20.48C78.8929 21.424 78.1569 22.16 77.1969 22.688C76.2529 23.216 75.1489 23.48 73.8849 23.48C72.1569 23.48 70.7169 23.072 69.5649 22.256C68.4129 21.44 67.7329 20.328 67.5249 18.92H69.6849C69.9249 19.72 70.4209 20.36 71.1729 20.84C71.9249 21.336 72.8289 21.584 73.8849 21.584C75.0849 21.584 76.0609 21.208 76.8129 20.456C77.5809 19.704 77.9649 18.648 77.9649 17.288V14.528C77.5329 15.296 76.8929 15.936 76.0449 16.448C75.1969 16.96 74.2049 17.216 73.0689 17.216C71.9009 17.216 70.8369 16.928 69.8769 16.352C68.9329 15.776 68.1889 14.968 67.6449 13.928C67.1009 12.888 66.8289 11.704 66.8289 10.376C66.8289 9.032 67.1009 7.856 67.6449 6.848C68.1889 5.824 68.9329 5.032 69.8769 4.472C70.8369 3.912 71.9009 3.632 73.0689 3.632ZM77.9649 10.4C77.9649 9.408 77.7649 8.544 77.3649 7.808C76.9649 7.072 76.4209 6.512 75.7329 6.128C75.0609 5.728 74.3169 5.528 73.5009 5.528C72.6849 5.528 71.9409 5.72 71.2689 6.104C70.5969 6.488 70.0609 7.048 69.6609 7.784C69.2609 8.52 69.0609 9.384 69.0609 10.376C69.0609 11.384 69.2609 12.264 69.6609 13.016C70.0609 13.752 70.5969 14.32 71.2689 14.72C71.9409 15.104 72.6849 15.296 73.5009 15.296C74.3169 15.296 75.0609 15.104 75.7329 14.72C76.4209 14.32 76.9649 13.752 77.3649 13.016C77.7649 12.264 77.9649 11.392 77.9649 10.4ZM95.1916 3.848L87.2716 23.192H85.0156L87.6076 16.856L82.3036 3.848H84.7276L88.8556 14.504L92.9356 3.848H95.1916Z"/>
</mask>
<path d="M6.152 17.168C5.048 17.168 4.056 16.976 3.176 16.592C2.312 16.192 1.632 15.648 1.136 14.96C0.64 14.256 0.384 13.448 0.368 12.536H2.696C2.776 13.32 3.096 13.984 3.656 14.528C4.232 15.056 5.064 15.32 6.152 15.32C7.192 15.32 8.008 15.064 8.6 14.552C9.208 14.024 9.512 13.352 9.512 12.536C9.512 11.896 9.336 11.376 8.984 10.976C8.632 10.576 8.192 10.272 7.664 10.064C7.136 9.856 6.424 9.632 5.528 9.392C4.424 9.104 3.536 8.816 2.864 8.528C2.208 8.24 1.64 7.792 1.16 7.184C0.696 6.56 0.464 5.728 0.464 4.688C0.464 3.776 0.696 2.968 1.16 2.264C1.624 1.56 2.272 1.016 3.104 0.631999C3.952 0.247999 4.92 0.0559993 6.008 0.0559993C7.576 0.0559993 8.856 0.447999 9.848 1.232C10.856 2.016 11.424 3.056 11.552 4.352H9.152C9.072 3.712 8.736 3.152 8.144 2.672C7.552 2.176 6.768 1.928 5.792 1.928C4.88 1.928 4.136 2.168 3.56 2.648C2.984 3.112 2.696 3.768 2.696 4.616C2.696 5.224 2.864 5.72 3.2 6.104C3.552 6.488 3.976 6.784 4.472 6.992C4.984 7.184 5.696 7.408 6.608 7.664C7.712 7.968 8.6 8.272 9.272 8.576C9.944 8.864 10.52 9.32 11 9.944C11.48 10.552 11.72 11.384 11.72 12.44C11.72 13.256 11.504 14.024 11.072 14.744C10.64 15.464 10 16.048 9.152 16.496C8.304 16.944 7.304 17.168 6.152 17.168ZM26.2619 3.848L18.3419 23.192H16.0859L18.6779 16.856L13.3739 3.848H15.7979L19.9259 14.504L24.0059 3.848H26.2619ZM34.8654 3.608C36.4654 3.608 37.7614 4.096 38.7534 5.072C39.7454 6.032 40.2414 7.424 40.2414 9.248V17H38.0814V9.56C38.0814 8.248 37.7534 7.248 37.0974 6.56C36.4414 5.856 35.5454 5.504 34.4094 5.504C33.2574 5.504 32.3374 5.864 31.6494 6.584C30.9774 7.304 30.6414 8.352 30.6414 9.728V17H28.4574V3.848H30.6414V5.72C31.0734 5.048 31.6574 4.528 32.3934 4.16C33.1454 3.792 33.9694 3.608 34.8654 3.608ZM55.8089 9.92C55.8089 10.336 55.7849 10.776 55.7369 11.24H45.2249C45.3049 12.536 45.7449 13.552 46.5449 14.288C47.3609 15.008 48.3449 15.368 49.4969 15.368C50.4409 15.368 51.2249 15.152 51.8489 14.72C52.4889 14.272 52.9369 13.68 53.1929 12.944H55.5449C55.1929 14.208 54.4889 15.24 53.4329 16.04C52.3769 16.824 51.0649 17.216 49.4969 17.216C48.2489 17.216 47.1289 16.936 46.1369 16.376C45.1609 15.816 44.3929 15.024 43.8329 14C43.2729 12.96 42.9929 11.76 42.9929 10.4C42.9929 9.04 43.2649 7.848 43.8089 6.824C44.3529 5.8 45.1129 5.016 46.0889 4.472C47.0809 3.912 48.2169 3.632 49.4969 3.632C50.7449 3.632 51.8489 3.904 52.8089 4.448C53.7689 4.992 54.5049 5.744 55.0169 6.704C55.5449 7.648 55.8089 8.72 55.8089 9.92ZM53.5529 9.464C53.5529 8.632 53.3689 7.92 53.0009 7.328C52.6329 6.72 52.1289 6.264 51.4889 5.96C50.8649 5.64 50.1689 5.48 49.4009 5.48C48.2969 5.48 47.3529 5.832 46.5689 6.536C45.8009 7.24 45.3609 8.216 45.2489 9.464H53.5529ZM60.8758 5.984C61.2598 5.232 61.8038 4.648 62.5078 4.232C63.2278 3.816 64.0998 3.608 65.1238 3.608V5.864H64.5478C62.0998 5.864 60.8758 7.192 60.8758 9.848V17H58.6918V3.848H60.8758V5.984ZM73.0689 3.632C74.2049 3.632 75.1969 3.88 76.0449 4.376C76.9089 4.872 77.5489 5.496 77.9649 6.248V3.848H80.1729V17.288C80.1729 18.488 79.9169 19.552 79.4049 20.48C78.8929 21.424 78.1569 22.16 77.1969 22.688C76.2529 23.216 75.1489 23.48 73.8849 23.48C72.1569 23.48 70.7169 23.072 69.5649 22.256C68.4129 21.44 67.7329 20.328 67.5249 18.92H69.6849C69.9249 19.72 70.4209 20.36 71.1729 20.84C71.9249 21.336 72.8289 21.584 73.8849 21.584C75.0849 21.584 76.0609 21.208 76.8129 20.456C77.5809 19.704 77.9649 18.648 77.9649 17.288V14.528C77.5329 15.296 76.8929 15.936 76.0449 16.448C75.1969 16.96 74.2049 17.216 73.0689 17.216C71.9009 17.216 70.8369 16.928 69.8769 16.352C68.9329 15.776 68.1889 14.968 67.6449 13.928C67.1009 12.888 66.8289 11.704 66.8289 10.376C66.8289 9.032 67.1009 7.856 67.6449 6.848C68.1889 5.824 68.9329 5.032 69.8769 4.472C70.8369 3.912 71.9009 3.632 73.0689 3.632ZM77.9649 10.4C77.9649 9.408 77.7649 8.544 77.3649 7.808C76.9649 7.072 76.4209 6.512 75.7329 6.128C75.0609 5.728 74.3169 5.528 73.5009 5.528C72.6849 5.528 71.9409 5.72 71.2689 6.104C70.5969 6.488 70.0609 7.048 69.6609 7.784C69.2609 8.52 69.0609 9.384 69.0609 10.376C69.0609 11.384 69.2609 12.264 69.6609 13.016C70.0609 13.752 70.5969 14.32 71.2689 14.72C71.9409 15.104 72.6849 15.296 73.5009 15.296C74.3169 15.296 75.0609 15.104 75.7329 14.72C76.4209 14.32 76.9649 13.752 77.3649 13.016C77.7649 12.264 77.9649 11.392 77.9649 10.4ZM95.1916 3.848L87.2716 23.192H85.0156L87.6076 16.856L82.3036 3.848H84.7276L88.8556 14.504L92.9356 3.848H95.1916Z" fill="white"/>
<path d="M3.176 16.592L-2.70573 29.2965L-2.56518 29.3616L-2.42322 29.4235L3.176 16.592ZM1.136 14.96L-10.3088 23.0233L-10.2649 23.0855L-10.2205 23.1472L1.136 14.96ZM0.368 12.536V-1.464H-13.8798L-13.6298 12.7816L0.368 12.536ZM2.696 12.536L16.6237 11.1148L15.3401 -1.464H2.696V12.536ZM3.656 14.528L-6.099 24.5699L-5.95359 24.7112L-5.80415 24.8482L3.656 14.528ZM8.6 14.552L17.7581 25.1411L17.7689 25.1318L17.7796 25.1225L8.6 14.552ZM8.984 10.976L-1.52599 20.2248L-1.52599 20.2248L8.984 10.976ZM7.664 10.064L2.53266 23.0897H2.53266L7.664 10.064ZM5.528 9.392L9.1503 -4.13127L9.10614 -4.1431L9.06191 -4.15464L5.528 9.392ZM2.864 8.528L-2.76386 21.347L-2.70747 21.3718L-2.65087 21.396L2.864 8.528ZM1.16 7.184L-10.0745 15.5378L-9.95374 15.7002L-9.82836 15.859L1.16 7.184ZM1.16 2.264L12.8494 9.96839L12.8494 9.96838L1.16 2.264ZM3.104 0.631999L-2.6711 -12.1214L-2.71703 -12.1006L-2.76281 -12.0794L3.104 0.631999ZM9.848 1.232L1.16724 12.2158L1.20991 12.2495L1.25284 12.2829L9.848 1.232ZM11.552 4.352V18.352H27.0028L25.4842 2.97599L11.552 4.352ZM9.152 4.352L-4.73989 6.08848L-3.20695 18.352H9.152V4.352ZM8.144 2.672L-0.847081 13.4033L-0.760728 13.4756L-0.673222 13.5466L8.144 2.672ZM3.56 2.648L12.3426 13.5505L12.4332 13.4776L12.5226 13.4031L3.56 2.648ZM3.2 6.104L-7.33607 15.3231L-7.22951 15.4449L-7.12016 15.5641L3.2 6.104ZM4.472 6.992L-0.942166 19.9027L-0.694841 20.0064L-0.443725 20.1006L4.472 6.992ZM6.608 7.664L2.82441 21.143L2.85781 21.1524L2.89126 21.1616L6.608 7.664ZM9.272 8.576L3.50166 21.3315L3.62883 21.389L3.75713 21.444L9.272 8.576ZM11 9.944L-0.0967402 18.4799L-0.0429845 18.5498L0.011647 18.619L11 9.944ZM11.072 14.744L23.0769 21.9469L11.072 14.744ZM9.152 16.496L2.61231 4.11729L9.152 16.496ZM6.152 3.168C6.68795 3.168 7.6438 3.26674 8.77522 3.76045L-2.42322 29.4235C0.468203 30.6853 3.40805 31.168 6.152 31.168V3.168ZM9.05773 3.88746C10.1038 4.37175 11.4161 5.27973 12.4925 6.77278L-10.2205 23.1472C-8.15209 26.0163 -5.47979 28.0122 -2.70573 29.2965L9.05773 3.88746ZM12.5808 6.89665C13.7971 8.62314 14.3357 10.5745 14.3658 12.2904L-13.6298 12.7816C-13.5677 16.3215 -12.5171 19.8889 -10.3088 23.0233L12.5808 6.89665ZM0.368 26.536H2.696V-1.464H0.368V26.536ZM-11.2317 13.9572C-10.821 17.9822 -9.04434 21.7087 -6.099 24.5699L13.411 4.48609C14.238 5.28944 15.0139 6.31169 15.6078 7.54401C16.2009 8.7746 16.5102 10.0024 16.6237 11.1148L-11.2317 13.9572ZM-5.80415 24.8482C-1.78306 28.5342 2.94109 29.32 6.152 29.32V1.32C7.18691 1.32 10.2471 1.57785 13.1161 4.20784L-5.80415 24.8482ZM6.152 29.32C9.43568 29.32 13.887 28.4891 17.7581 25.1411L-0.558128 3.96292C2.12902 1.63889 4.94832 1.32 6.152 1.32V29.32ZM17.7796 25.1225C21.4962 21.8949 23.512 17.3452 23.512 12.536H-4.488C-4.488 11.1671 -4.22327 9.54344 -3.47151 7.88165C-2.71756 6.21503 -1.65811 4.91813 -0.579611 3.98153L17.7796 25.1225ZM23.512 12.536C23.512 9.21022 22.5287 5.17578 19.494 1.72721L-1.52599 20.2248C-3.85673 17.5762 -4.488 14.5818 -4.488 12.536H23.512ZM19.494 1.72721C17.5792 -0.448668 15.2525 -1.99376 12.7953 -2.96172L2.53266 23.0897C1.13154 22.5378 -0.315219 21.6007 -1.52599 20.2248L19.494 1.72721ZM12.7953 -2.96172C11.5647 -3.44651 10.2813 -3.82832 9.1503 -4.13127L1.9057 22.9153C2.20379 22.9951 2.40764 23.0554 2.53253 23.0947C2.66614 23.1367 2.65239 23.1369 2.53266 23.0897L12.7953 -2.96172ZM9.06191 -4.15464C8.71836 -4.24426 8.48832 -4.31325 8.35307 -4.35712C8.20959 -4.40365 8.23374 -4.40223 8.37887 -4.34003L-2.65087 21.396C-1.08489 22.0672 0.543637 22.5603 1.99409 22.9386L9.06191 -4.15464ZM8.49186 -4.29102C10.1032 -3.58361 11.3261 -2.53257 12.1484 -1.49102L-9.82836 15.859C-8.04608 18.1166 -5.68717 20.0636 -2.76386 21.347L8.49186 -4.29102ZM12.3945 -1.16984C14.2459 1.32004 14.464 3.72487 14.464 4.688H-13.536C-13.536 7.73112 -12.8539 11.8 -10.0745 15.5378L12.3945 -1.16984ZM14.464 4.688C14.464 6.28113 14.0163 8.19791 12.8494 9.96839L-10.5294 -5.44039C-12.6243 -2.26191 -13.536 1.27087 -13.536 4.688H14.464ZM12.8494 9.96838C11.7531 11.6317 10.295 12.7323 8.97081 13.3434L-2.76281 -12.0794C-5.75104 -10.7003 -8.50511 -8.51174 -10.5294 -5.44038L12.8494 9.96838ZM8.8791 13.3854C7.63185 13.9502 6.57857 14.056 6.008 14.056V-13.944C3.26143 -13.944 0.272151 -13.4542 -2.6711 -12.1214L8.8791 13.3854ZM6.008 14.056C5.20031 14.056 3.19311 13.8169 1.16724 12.2158L18.5288 -9.75182C14.5189 -12.9209 9.95169 -13.944 6.008 -13.944V14.056ZM1.25284 12.2829C0.360788 11.5891 -0.551239 10.6026 -1.25692 9.31055C-1.95946 8.02422 -2.27785 6.76443 -2.38021 5.72801L25.4842 2.97599C24.9874 -2.0547 22.5487 -6.62578 18.4432 -9.81894L1.25284 12.2829ZM11.552 -9.648H9.152V18.352H11.552V-9.648ZM23.0439 2.61552C22.4354 -2.2522 19.8159 -5.88795 16.9612 -8.20258L-0.673222 13.5466C-2.34394 12.192 -4.29143 9.6762 -4.73989 6.08848L23.0439 2.61552ZM17.1351 -8.05928C13.4161 -11.1752 9.16647 -12.072 5.792 -12.072V15.928C4.36953 15.928 1.68787 15.5272 -0.847081 13.4033L17.1351 -8.05928ZM5.792 -12.072C2.34029 -12.072 -1.79819 -11.1108 -5.40258 -8.1071L12.5226 13.4031C10.0702 15.4468 7.41971 15.928 5.792 15.928V-12.072ZM-5.22262 -8.25455C-9.60584 -4.72362 -11.304 0.230176 -11.304 4.616H16.696C16.696 5.77877 16.4955 7.37464 15.731 9.11586C14.9423 10.9123 13.745 12.4208 12.3426 13.5505L-5.22262 -8.25455ZM-11.304 4.616C-11.304 7.93191 -10.3174 11.9159 -7.33607 15.3231L13.7361 -3.11507C16.0454 -0.475865 16.696 2.51609 16.696 4.616H-11.304ZM-7.12016 15.5641C-5.3564 17.4882 -3.2413 18.9386 -0.942166 19.9027L9.88617 -5.91872C11.1933 -5.37057 12.4604 -4.51224 13.5202 -3.35614L-7.12016 15.5641ZM-0.443725 20.1006C0.613111 20.4969 1.76273 20.845 2.82441 21.143L10.3916 -5.81504C10.0404 -5.91363 9.7779 -5.99204 9.59147 -6.05069C9.3958 -6.11225 9.34069 -6.13425 9.38773 -6.11661L-0.443725 20.1006ZM2.89126 21.1616C3.22545 21.2536 3.44438 21.3232 3.56756 21.3653C3.69891 21.4103 3.66088 21.4035 3.50166 21.3315L15.0423 -4.17951C13.4486 -4.90049 11.7929 -5.42936 10.3247 -5.83362L2.89126 21.1616ZM3.75713 21.444C2.06091 20.7171 0.767379 19.6033 -0.0967402 18.4799L22.0967 1.40806C20.2726 -0.963302 17.8271 -2.98908 14.7869 -4.29203L3.75713 21.444ZM0.011647 18.619C-2.06129 15.9933 -2.28 13.3984 -2.28 12.44H25.72C25.72 9.36964 25.0213 5.11069 21.9884 1.26897L0.011647 18.619ZM-2.28 12.44C-2.28 10.6425 -1.76667 8.93067 -0.9329 7.54106L23.0769 21.9469C24.7747 19.1173 25.72 15.8695 25.72 12.44H-2.28ZM-0.932899 7.54106C0.12877 5.77161 1.52822 4.69002 2.61231 4.11729L15.6917 28.8747C18.4718 27.406 21.1512 25.1564 23.0769 21.9469L-0.932899 7.54106ZM2.61231 4.11729C4.1473 3.30635 5.48016 3.168 6.152 3.168V31.168C9.12784 31.168 12.4607 30.5816 15.6917 28.8747L2.61231 4.11729ZM26.2619 3.848L39.2181 9.15261L47.1219 -10.152H26.2619V3.848ZM18.3419 23.192V37.192H27.7379L31.2981 28.4966L18.3419 23.192ZM16.0859 23.192L3.12828 17.8911L-4.76753 37.192H16.0859V23.192ZM18.6779 16.856L31.6356 22.1569L33.8006 16.8647L31.6417 11.57L18.6779 16.856ZM13.3739 3.848V-10.152H-7.45364L0.410193 9.13395L13.3739 3.848ZM15.7979 3.848L28.8526 -1.20922L25.3883 -10.152H15.7979V3.848ZM19.9259 14.504L6.87126 19.5612L20.0023 53.4577L33.0004 19.51L19.9259 14.504ZM24.0059 3.848V-10.152H14.3752L10.9315 -1.15797L24.0059 3.848ZM13.3058 -1.45662L5.38582 17.8874L31.2981 28.4966L39.2181 9.15261L13.3058 -1.45662ZM18.3419 9.192H16.0859V37.192H18.3419V9.192ZM29.0436 28.4929L31.6356 22.1569L5.72028 11.5551L3.12828 17.8911L29.0436 28.4929ZM31.6417 11.57L26.3377 -1.43796L0.410193 9.13395L5.71419 22.142L31.6417 11.57ZM13.3739 17.848H15.7979V-10.152H13.3739V17.848ZM2.74326 8.90522L6.87126 19.5612L32.9806 9.44678L28.8526 -1.20922L2.74326 8.90522ZM33.0004 19.51L37.0804 8.85397L10.9315 -1.15797L6.85152 9.49803L33.0004 19.51ZM24.0059 17.848H26.2619V-10.152H24.0059V17.848ZM38.7534 5.072L28.9347 15.0516L28.9759 15.0922L29.0175 15.1324L38.7534 5.072ZM40.2414 17V31H54.2414V17H40.2414ZM38.0814 17H24.0814V31H38.0814V17ZM37.0974 6.56L26.8549 16.1042L26.9096 16.1629L26.965 16.2211L37.0974 6.56ZM31.6494 6.584L21.5275 -3.08801L21.4707 -3.02856L21.4146 -2.96846L31.6494 6.584ZM30.6414 17V31H44.6414V17H30.6414ZM28.4574 17H14.4574V31H28.4574V17ZM28.4574 3.848V-10.152H14.4574V3.848H28.4574ZM30.6414 3.848H44.6414V-10.152H30.6414V3.848ZM30.6414 5.72H16.6414V53.3874L42.4179 13.2906L30.6414 5.72ZM32.3934 4.16L26.2396 -8.41503L26.1859 -8.38874L26.1324 -8.36198L32.3934 4.16ZM34.8654 17.608C34.2382 17.608 33.2575 17.5103 32.1039 17.0759C30.9142 16.628 29.8243 15.9269 28.9347 15.0516L48.5721 -4.90765C44.5658 -8.84932 39.5439 -10.392 34.8654 -10.392V17.608ZM29.0175 15.1324C26.4898 12.6863 26.2414 9.94714 26.2414 9.248H54.2414C54.2414 4.90086 53.0009 -0.622331 48.4893 -4.98843L29.0175 15.1324ZM26.2414 9.248V17H54.2414V9.248H26.2414ZM40.2414 3H38.0814V31H40.2414V3ZM52.0814 17V9.56H24.0814V17H52.0814ZM52.0814 9.56C52.0814 6.03571 51.1831 1.04522 47.2297 -3.10106L26.965 16.2211C24.3236 13.4508 24.0814 10.4603 24.0814 9.56H52.0814ZM47.3399 -2.98416C43.5569 -7.044 38.6668 -8.496 34.4094 -8.496V19.504C33.5348 19.504 32.2621 19.3673 30.8142 18.7985C29.3163 18.21 27.9534 17.2831 26.8549 16.1042L47.3399 -2.98416ZM34.4094 -8.496C30.0876 -8.496 25.2768 -7.01173 21.5275 -3.08801L41.7712 16.256C40.7185 17.3577 39.4112 18.2424 37.957 18.8114C36.5452 19.3638 35.2937 19.504 34.4094 19.504V-8.496ZM21.4146 -2.96846C17.5048 1.22065 16.6414 6.22152 16.6414 9.728H44.6414C44.6414 10.4825 44.45 13.3874 41.8841 16.1365L21.4146 -2.96846ZM16.6414 9.728V17H44.6414V9.728H16.6414ZM30.6414 3H28.4574V31H30.6414V3ZM42.4574 17V3.848H14.4574V17H42.4574ZM28.4574 17.848H30.6414V-10.152H28.4574V17.848ZM16.6414 3.848V5.72H44.6414V3.848H16.6414ZM42.4179 13.2906C41.4474 14.8002 40.0975 15.9604 38.6544 16.682L26.1324 -8.36198C23.2173 -6.90443 20.6994 -4.70424 18.8649 -1.85061L42.4179 13.2906ZM38.5471 16.735C37.2503 17.3696 35.9494 17.608 34.8654 17.608V-10.392C31.9894 -10.392 29.0404 -9.78563 26.2396 -8.41503L38.5471 16.735ZM55.7369 11.24V25.24H68.3634L69.6626 12.6806L55.7369 11.24ZM45.2249 11.24V-2.76H30.3341L31.2515 12.1026L45.2249 11.24ZM46.5449 14.288L37.0661 24.591L37.1732 24.6895L37.2822 24.7857L46.5449 14.288ZM51.8489 14.72L59.8179 26.2307L59.8477 26.21L59.8774 26.1892L51.8489 14.72ZM53.1929 12.944V-1.056H43.2398L39.97 8.34471L53.1929 12.944ZM55.5449 12.944L69.0317 16.6998L73.9764 -1.056H55.5449V12.944ZM53.4329 16.04L61.7783 27.2807L61.8328 27.2403L61.8869 27.1993L53.4329 16.04ZM46.1369 16.376L39.1696 28.5191L39.212 28.5435L39.2546 28.5675L46.1369 16.376ZM43.8329 14L31.5063 20.6374L31.5279 20.6775L31.5497 20.7174L43.8329 14ZM43.8089 6.824L56.1726 13.3922L43.8089 6.824ZM46.0889 4.472L52.9049 16.7007L52.9382 16.6822L52.9713 16.6635L46.0889 4.472ZM52.8089 4.448L45.9068 16.6283L45.9068 16.6283L52.8089 4.448ZM55.0169 6.704L42.664 13.2922L42.7299 13.4159L42.7983 13.5381L55.0169 6.704ZM53.5529 9.464V23.464H67.5529V9.464H53.5529ZM53.0009 7.328L41.0239 14.5772L41.067 14.6484L41.1109 14.7191L53.0009 7.328ZM51.4889 5.96L45.1005 18.4174L45.2899 18.5146L45.4821 18.6059L51.4889 5.96ZM46.5689 6.536L37.2152 -3.88068L37.1617 -3.83269L37.1088 -3.78416L46.5689 6.536ZM45.2489 9.464L31.305 8.21262L29.9363 23.464H45.2489V9.464ZM41.8089 9.92C41.8089 9.80127 41.8156 9.75758 41.8113 9.7994L69.6626 12.6806C69.7543 11.7944 69.8089 10.8707 69.8089 9.92H41.8089ZM55.7369 -2.76H45.2249V25.24H55.7369V-2.76ZM31.2515 12.1026C31.5082 16.26 33.1004 20.9426 37.0661 24.591L56.0237 3.98497C57.093 4.96868 57.9181 6.15449 58.4619 7.41033C58.9879 8.62492 59.1552 9.67903 59.1983 10.3774L31.2515 12.1026ZM37.2822 24.7857C40.8148 27.9027 45.1516 29.368 49.4969 29.368V1.368C50.399 1.368 51.5101 1.51311 52.7051 1.95028C53.9122 2.39192 54.9605 3.04283 55.8076 3.79027L37.2822 24.7857ZM49.4969 29.368C52.5891 29.368 56.3367 28.6407 59.8179 26.2307L43.88 3.20931C46.1132 1.66326 48.2928 1.368 49.4969 1.368V29.368ZM59.8774 26.1892C62.9212 24.0586 65.1907 21.0658 66.4159 17.5433L39.97 8.34471C40.6832 6.29423 42.0567 4.48542 43.8205 3.25075L59.8774 26.1892ZM53.1929 26.944H55.5449V-1.056H53.1929V26.944ZM42.0581 9.18818C42.2717 8.42125 42.635 7.58666 43.1877 6.7765C43.7394 5.96766 44.3732 5.33963 44.9789 4.88071L61.8869 27.1993C65.36 24.5682 67.849 20.9468 69.0317 16.6998L42.0581 9.18818ZM45.0875 4.79926C46.8823 3.46675 48.6537 3.216 49.4969 3.216V31.216C53.4762 31.216 57.8715 30.1813 61.7783 27.2807L45.0875 4.79926ZM49.4969 3.216C50.424 3.216 51.7144 3.44786 53.0193 4.18446L39.2546 28.5675C42.5434 30.4241 46.0739 31.216 49.4969 31.216V3.216ZM53.1043 4.23287C54.4522 5.00626 55.4864 6.13113 56.1161 7.28263L31.5497 20.7174C33.2995 23.9169 35.8697 26.6257 39.1696 28.5191L53.1043 4.23287ZM56.1595 7.3626C56.8541 8.6526 56.9929 9.79663 56.9929 10.4H28.9929C28.9929 13.7234 29.6917 17.2674 31.5063 20.6374L56.1595 7.3626ZM56.9929 10.4C56.9929 10.9339 56.8748 12.0703 56.1726 13.3922L31.4453 0.255826C29.6551 3.62572 28.9929 7.14615 28.9929 10.4H56.9929ZM56.1726 13.3922C55.5016 14.6552 54.3768 15.8803 52.9049 16.7007L39.2729 -7.75674C35.849 -5.84834 33.2043 -3.0552 31.4453 0.255827L56.1726 13.3922ZM52.9713 16.6635C51.6136 17.43 50.3247 17.632 49.4969 17.632V-10.368C46.1092 -10.368 42.5483 -9.60597 39.2066 -7.71954L52.9713 16.6635ZM49.4969 17.632C48.6481 17.632 47.3155 17.4266 45.9068 16.6283L59.7111 -7.73231C56.3824 -9.61857 52.8417 -10.368 49.4969 -10.368V17.632ZM45.9068 16.6283C44.5909 15.8827 43.4204 14.7104 42.664 13.2922L67.3699 0.115764C65.5895 -3.22245 62.947 -5.89866 59.7111 -7.73231L45.9068 16.6283ZM42.7983 13.5381C42.0342 12.172 41.8089 10.8452 41.8089 9.92H69.8089C69.8089 6.59476 69.0557 3.12399 67.2355 -0.130138L42.7983 13.5381ZM67.5529 9.464C67.5529 6.5302 66.8848 3.14443 64.8909 -0.0630789L41.1109 14.7191C39.8531 12.6956 39.5529 10.7338 39.5529 9.464H67.5529ZM64.9779 0.0787601C63.1956 -2.86603 60.6191 -5.20227 57.4957 -6.68589L45.4821 18.6059C43.6387 17.7303 42.0703 16.306 41.0239 14.5772L64.9779 0.0787601ZM57.8774 -6.49744C55.0933 -7.92516 52.1753 -8.52 49.4009 -8.52V19.48C48.1626 19.48 46.6365 19.2052 45.1005 18.4174L57.8774 -6.49744ZM49.4009 -8.52C45.0244 -8.52 40.6998 -7.0097 37.2152 -3.88068L55.9227 16.9527C55.0703 17.7181 54.0026 18.397 52.7563 18.8617C51.5203 19.3226 50.359 19.48 49.4009 19.48V-8.52ZM37.1088 -3.78416C33.2664 -0.261944 31.6622 4.23165 31.305 8.21262L59.1929 10.7154C59.1325 11.3883 58.947 12.394 58.4259 13.5498C57.8879 14.7431 57.0832 15.8899 56.0291 16.8562L37.1088 -3.78416ZM45.2489 23.464H53.5529V-4.536H45.2489V23.464ZM60.8758 5.984H46.8758L73.3442 12.3509L60.8758 5.984ZM62.5078 4.232L55.5039 -7.89011L55.4445 -7.85583L55.3855 -7.82098L62.5078 4.232ZM65.1237 3.608H79.1237V-10.392H65.1237V3.608ZM65.1237 5.864V19.864H79.1237V5.864H65.1237ZM60.8758 17V31H74.8757V17H60.8758ZM58.6917 17H44.6917V31H58.6917V17ZM58.6917 3.848V-10.152H44.6917V3.848H58.6917ZM60.8758 3.848H74.8757V-10.152H60.8758V3.848ZM73.3442 12.3509C72.5626 13.8815 71.2883 15.3051 69.63 16.285L55.3855 -7.82098C52.3192 -6.00907 49.9569 -3.41752 48.4073 -0.382876L73.3442 12.3509ZM69.5116 16.3541C67.6614 17.4231 65.9937 17.608 65.1237 17.608V-10.392C62.2058 -10.392 58.7941 -9.79115 55.5039 -7.89011L69.5116 16.3541ZM51.1237 3.608V5.864H79.1237V3.608H51.1237ZM65.1237 -8.136H64.5478V19.864H65.1237V-8.136ZM64.5478 -8.136C60.8591 -8.136 55.6049 -7.0825 51.4994 -2.62819C47.5928 1.6103 46.8758 6.63234 46.8758 9.848H74.8757C74.8757 10.4077 74.7707 13.4377 72.0881 16.3482C69.2066 19.4745 65.7884 19.864 64.5478 19.864V-8.136ZM46.8758 9.848V17H74.8757V9.848H46.8758ZM60.8758 3H58.6917V31H60.8758V3ZM72.6917 17V3.848H44.6917V17H72.6917ZM58.6917 17.848H60.8758V-10.152H58.6917V17.848ZM46.8758 3.848V5.984H74.8757V3.848H46.8758ZM76.0449 4.376L68.9765 16.4606L69.0255 16.4893L69.0747 16.5175L76.0449 4.376ZM77.9649 6.248L65.7144 13.0249L91.9649 6.248H77.9649ZM77.9649 3.848V-10.152H63.9649V3.848H77.9649ZM80.1729 3.848H94.1729V-10.152H80.1729V3.848ZM79.4049 20.48L67.1468 13.7169L67.1225 13.761L67.0984 13.8053L79.4049 20.48ZM77.1969 22.688L70.45 10.421L70.4063 10.445L70.3627 10.4694L77.1969 22.688ZM69.5649 22.256L61.4726 33.6803L69.5649 22.256ZM67.5249 18.92V4.92H51.3048L53.6752 20.966L67.5249 18.92ZM69.6849 18.92L83.0944 14.8971L80.1013 4.92H69.6849V18.92ZM71.1729 20.84L78.8812 9.15318L78.7937 9.09548L78.7054 9.03909L71.1729 20.84ZM76.8129 20.456L67.0181 10.4529L66.9655 10.5044L66.9134 10.5565L76.8129 20.456ZM77.9649 14.528H91.9649V-38.9171L65.7628 7.66434L77.9649 14.528ZM76.0449 16.448L68.8087 4.4631L76.0449 16.448ZM69.8769 16.352L62.5848 28.3029L62.6293 28.3301L62.6739 28.3569L69.8769 16.352ZM67.6449 13.928L80.0502 7.43904V7.43903L67.6449 13.928ZM67.6449 6.848L79.9652 13.4971L79.987 13.4567L80.0085 13.4162L67.6449 6.848ZM69.8769 4.472L62.8227 -7.6209L62.7783 -7.595L62.734 -7.56877L69.8769 4.472ZM75.7329 6.128L68.5721 18.1581L68.7396 18.2578L68.9098 18.3528L75.7329 6.128ZM71.2689 6.104L64.3229 -6.05141V-6.0514L71.2689 6.104ZM69.6609 7.784L81.9616 14.4692V14.4692L69.6609 7.784ZM69.6609 13.016L57.3007 19.5906L57.3301 19.646L57.3601 19.7012L69.6609 13.016ZM71.2689 14.72L64.1081 26.7501L64.215 26.8137L64.3229 26.8754L71.2689 14.72ZM75.7329 14.72L82.6788 26.8754L82.7243 26.8494L82.7696 26.8231L75.7329 14.72ZM77.3649 13.016L89.6656 19.7012L89.6956 19.646L89.7251 19.5906L77.3649 13.016ZM73.0689 17.632C72.1142 17.632 70.589 17.4038 68.9765 16.4606L83.1132 -7.70863C79.8048 -9.64378 76.2955 -10.368 73.0689 -10.368V17.632ZM69.0747 16.5175C68.0805 15.9468 66.7217 14.8457 65.7144 13.0249L90.2154 -0.528856C88.3761 -3.85374 85.7372 -6.2028 83.015 -7.76555L69.0747 16.5175ZM91.9649 6.248V3.848H63.9649V6.248H91.9649ZM77.9649 17.848H80.1729V-10.152H77.9649V17.848ZM66.1729 3.848V17.288H94.1729V3.848H66.1729ZM66.1729 17.288C66.1729 16.44 66.3721 15.1211 67.1468 13.7169L91.663 27.2431C93.4617 23.9829 94.1729 20.536 94.1729 17.288H66.1729ZM67.0984 13.8053C67.8926 12.341 69.1096 11.1582 70.45 10.421L83.9437 34.955C87.2042 33.1618 89.8931 30.507 91.7113 27.1547L67.0984 13.8053ZM70.3627 10.4694C71.835 9.64593 73.1621 9.48 73.8849 9.48V37.48C77.1357 37.48 80.6708 36.7861 84.031 34.9066L70.3627 10.4694ZM73.8849 9.48C74.3965 9.48 75.957 9.62738 77.6571 10.8317L61.4726 33.6803C65.4768 36.5166 69.9172 37.48 73.8849 37.48V9.48ZM77.6571 10.8317C78.5011 11.4295 79.4038 12.3109 80.1347 13.5062C80.8642 14.6992 81.2289 15.8876 81.3746 16.874L53.6752 20.966C54.4366 26.1199 57.173 30.6348 61.4726 33.6803L77.6571 10.8317ZM67.5249 32.92H69.6849V4.92H67.5249V32.92ZM56.2753 22.9429C57.5481 27.1854 60.2695 30.4893 63.6404 32.6409L78.7054 9.03909C79.5461 9.5757 80.4715 10.3516 81.3027 11.424C82.1425 12.5077 82.7356 13.7011 83.0944 14.8971L56.2753 22.9429ZM63.4646 32.5268C66.8759 34.7768 70.5704 35.584 73.8849 35.584V7.584C75.0874 7.584 76.9739 7.89517 78.8812 9.15318L63.4646 32.5268ZM73.8849 35.584C78.2781 35.584 82.9888 34.079 86.7124 30.3555L66.9134 10.5565C67.8968 9.57313 69.1152 8.76524 70.484 8.23792C71.8201 7.72319 73.0145 7.584 73.8849 7.584V35.584ZM86.6076 30.4591C90.7349 26.4178 91.9649 21.3582 91.9649 17.288H63.9649C63.9649 16.6691 64.0507 15.6055 64.5198 14.3156C65.0105 12.9661 65.8367 11.6097 67.0181 10.4529L86.6076 30.4591ZM91.9649 17.288V14.528H63.9649V17.288H91.9649ZM65.7628 7.66434C66.6576 6.07359 67.8489 5.04261 68.8087 4.4631L83.281 28.4329C85.9369 26.8294 88.4081 24.5184 90.1669 21.3917L65.7628 7.66434ZM68.8087 4.4631C70.4492 3.47261 72.0358 3.216 73.0689 3.216V31.216C76.3739 31.216 79.9446 30.4474 83.281 28.4329L68.8087 4.4631ZM73.0689 3.216C74.3234 3.216 75.7676 3.55976 77.0798 4.3471L62.6739 28.3569C65.9062 30.2962 69.4783 31.216 73.0689 31.216V3.216ZM77.169 4.40105C78.5278 5.23014 79.4921 6.37195 80.0502 7.43904L55.2395 20.417C56.8857 23.5641 59.338 26.3219 62.5848 28.3029L77.169 4.40105ZM80.0502 7.43903C80.6846 8.65181 80.8289 9.74434 80.8289 10.376H52.8289C52.8289 13.6637 53.5171 17.1242 55.2395 20.417L80.0502 7.43903ZM80.8289 10.376C80.8289 10.95 80.7005 12.1345 79.9652 13.4971L55.3246 0.198942C53.5012 3.5775 52.8289 7.11402 52.8289 10.376H80.8289ZM80.0085 13.4162C79.4183 14.5272 78.4117 15.687 77.0197 16.5128L62.734 -7.56877C59.4541 -5.62302 56.9595 -2.87922 55.2813 0.279827L80.0085 13.4162ZM76.9311 16.5649C75.6392 17.3185 74.2482 17.632 73.0689 17.632V-10.368C69.5535 -10.368 66.0345 -9.49448 62.8227 -7.6209L76.9311 16.5649ZM91.9649 10.4C91.9649 7.503 91.3695 4.25804 89.6656 1.12281L65.0641 14.4932C64.1602 12.83 63.9649 11.313 63.9649 10.4H91.9649ZM89.6656 1.12281C88.0842 -1.78704 85.7054 -4.33897 82.556 -6.09677L68.9098 18.3528C67.1364 17.363 65.8456 15.931 65.0641 14.4932L89.6656 1.12281ZM82.8936 -5.9021C79.9594 -7.6487 76.7232 -8.472 73.5009 -8.472V19.528C71.9105 19.528 70.1624 19.1047 68.5721 18.1581L82.8936 -5.9021ZM73.5009 -8.472C70.3858 -8.472 67.2264 -7.71055 64.3229 -6.05141L78.2148 18.2594C76.6553 19.1506 74.9839 19.528 73.5009 19.528V-8.472ZM64.3229 -6.0514C61.207 -4.27085 58.8961 -1.72734 57.3601 1.09882L81.9616 14.4692C81.2257 15.8233 79.9868 17.2469 78.2148 18.2594L64.3229 -6.0514ZM57.3601 1.09881C55.6562 4.23404 55.0609 7.479 55.0609 10.376H83.0609C83.0609 11.289 82.8655 12.806 81.9616 14.4692L57.3601 1.09881ZM55.0609 10.376C55.0609 13.2568 55.6427 16.4735 57.3007 19.5906L82.0211 6.44142C82.8791 8.05447 83.0609 9.5112 83.0609 10.376H55.0609ZM57.3601 19.7012C58.8732 22.4852 61.1193 24.971 64.1081 26.7501L78.4296 2.6899C80.0745 3.66895 81.2486 5.01876 81.9616 6.33082L57.3601 19.7012ZM64.3229 26.8754C67.2264 28.5346 70.3858 29.296 73.5009 29.296V1.296C74.9839 1.296 76.6553 1.67345 78.2148 2.5646L64.3229 26.8754ZM73.5009 29.296C76.6159 29.296 79.7753 28.5346 82.6788 26.8754L68.7869 2.56459C70.3464 1.67345 72.0178 1.296 73.5009 1.296V29.296ZM82.7696 26.8231C85.7943 25.0645 88.1078 22.5676 89.6656 19.7012L65.0641 6.33081C65.822 4.93643 67.0475 3.57545 68.6962 2.6169L82.7696 26.8231ZM89.7251 19.5906C91.3666 16.5045 91.9649 13.306 91.9649 10.4H63.9649C63.9649 9.47803 64.1631 8.02351 65.0047 6.44142L89.7251 19.5906ZM95.1916 3.848L108.148 9.15261L116.052 -10.152H95.1916V3.848ZM87.2716 23.192V37.192H96.6676L100.228 28.4966L87.2716 23.192ZM85.0156 23.192L72.058 17.8911L64.1622 37.192H85.0156V23.192ZM87.6076 16.856L100.565 22.1569L102.73 16.8647L100.571 11.57L87.6076 16.856ZM82.3036 3.848V-10.152H61.4761L69.3399 9.13395L82.3036 3.848ZM84.7276 3.848L97.7823 -1.20922L94.318 -10.152H84.7276V3.848ZM88.8556 14.504L75.8009 19.5612L88.932 53.4577L101.93 19.51L88.8556 14.504ZM92.9356 3.848V-10.152H83.3049L79.8612 -1.15797L92.9356 3.848ZM82.2355 -1.45662L74.3155 17.8874L100.228 28.4966L108.148 9.15261L82.2355 -1.45662ZM87.2716 9.192H85.0156V37.192H87.2716V9.192ZM97.9733 28.4929L100.565 22.1569L74.65 11.5551L72.058 17.8911L97.9733 28.4929ZM100.571 11.57L95.2674 -1.43796L69.3399 9.13395L74.6439 22.142L100.571 11.57ZM82.3036 17.848H84.7276V-10.152H82.3036V17.848ZM71.673 8.90522L75.8009 19.5612L101.91 9.44678L97.7823 -1.20922L71.673 8.90522ZM101.93 19.51L106.01 8.85397L79.8612 -1.15797L75.7812 9.49803L101.93 19.51ZM92.9356 17.848H95.1916V-10.152H92.9356V17.848Z" fill="#3A8AF2" mask="url(#path-1-outside-1_9_60)"/>
</svg>
